<svg width="498" height="87" viewBox="0 0 498 87" fill="none" xmlns="http://www.w3.org/2000/svg">
<g clip-path="url(#clip0_3_29)">
<path d="M68.5345 9.05173H6.46552C2.94569 9.05173 0 11.9961 0 15.5172V55.6034C0 59.1246 2.94569 62.069 6.46552 62.069H25.8621L37.5 75L49.1379 62.069H68.5345C72.0543 62.069 75 59.1246 75 55.6034V15.5172C75 11.9961 72.0543 9.05173 68.5345 9.05173Z" fill="#25D366"/>
<path d="M65.9483 9.05173V4.90474C65.9483 2.23448 63.7138 0 61.0435 0H13.9565C11.2862 0 9.05173 2.23448 9.05173 4.90474V9.05173H65.9483Z" fill="#2BB741"/>
<path d="M20.6897 40.0669C22.8321 40.0669 24.569 38.33 24.569 36.1876C24.569 34.0451 22.8321 32.3082 20.6897 32.3082C18.5472 32.3082 16.8103 34.0451 16.8103 36.1876C16.8103 38.33 18.5472 40.0669 20.6897 40.0669Z" fill="white"/>
<path d="M37.5 40.0669C39.6425 40.0669 41.3793 38.33 41.3793 36.1876C41.3793 34.0451 39.6425 32.3082 37.5 32.3082C35.3575 32.3082 33.6207 34.0451 33.6207 36.1876C33.6207 38.33 35.3575 40.0669 37.5 40.0669Z" fill="white"/>
<path d="M54.3104 40.0669C56.4528 40.0669 58.1897 38.33 58.1897 36.1876C58.1897 34.0451 56.4528 32.3082 54.3104 32.3082C52.1679 32.3082 50.431 34.0451 50.431 36.1876C50.431 38.33 52.1679 40.0669 54.3104 40.0669Z" fill="white"/>
<path d="M114.564 21.2384H100.856L102.508 13.16H139.84L138.188 21.2384H124.54L117.563 56H107.649L114.564 21.2384ZM149.845 56.4896C146.54 56.4896 143.623 55.8776 141.093 54.6536C138.604 53.4296 136.666 51.716 135.279 49.5128C133.933 47.2688 133.26 44.678 133.26 41.7404C133.26 38.1092 134.116 34.8452 135.83 31.9484C137.544 29.0516 139.91 26.7668 142.929 25.094C145.948 23.4212 149.355 22.5848 153.15 22.5848C156.495 22.5848 159.412 23.1968 161.901 24.4208C164.39 25.6448 166.308 27.3788 167.654 29.6228C169.041 31.826 169.735 34.3964 169.735 37.334C169.735 40.9652 168.878 44.2292 167.164 47.126C165.492 50.0228 163.125 52.3076 160.065 53.9804C157.046 55.6532 153.639 56.4896 149.845 56.4896ZM150.457 48.5948C152.293 48.5948 153.945 48.146 155.414 47.2484C156.883 46.31 158.025 45.0248 158.841 43.3928C159.657 41.7608 160.065 39.884 160.065 37.7624C160.065 35.5184 159.412 33.7436 158.107 32.438C156.801 31.1324 154.965 30.4796 152.599 30.4796C150.722 30.4796 149.049 30.9488 147.58 31.8872C146.112 32.7848 144.969 34.0496 144.153 35.6816C143.337 37.3136 142.929 39.1904 142.929 41.312C142.929 43.556 143.582 45.3308 144.888 46.6364C146.234 47.942 148.09 48.5948 150.457 48.5948ZM220.549 22.5848C224.139 22.5848 226.995 23.564 229.117 25.5224C231.239 27.44 232.299 30.1736 232.299 33.7232C232.299 35.0288 232.157 36.3752 231.871 37.7624L228.26 56H218.713L222.201 38.4356C222.365 37.6196 222.446 36.7832 222.446 35.9264C222.446 34.2536 221.997 32.9888 221.1 32.132C220.243 31.2752 218.958 30.8468 217.244 30.8468C212.634 30.8468 209.757 33.6008 208.615 39.1088L205.249 56H195.702L199.19 38.4356C199.353 37.6196 199.435 36.8036 199.435 35.9876C199.435 34.3148 198.986 33.05 198.089 32.1932C197.232 31.2956 195.947 30.8468 194.233 30.8468C189.623 30.8468 186.726 33.6416 185.543 39.2312L182.238 56H172.691L179.239 23.0744H188.297L187.562 26.5016C190.418 23.8904 193.866 22.5848 197.905 22.5848C200.19 22.5848 202.209 23.054 203.964 23.9924C205.759 24.89 207.105 26.216 208.003 27.9704C209.594 26.216 211.451 24.89 213.572 23.9924C215.694 23.054 218.019 22.5848 220.549 22.5848ZM261.91 22.5848C264.48 22.5848 266.846 23.1764 269.009 24.3596C271.212 25.5428 272.946 27.2564 274.211 29.5004C275.516 31.7036 276.169 34.3148 276.169 37.334C276.169 40.9652 275.353 44.2496 273.721 47.1872C272.13 50.084 269.947 52.3688 267.173 54.0416C264.398 55.6736 261.318 56.4896 257.932 56.4896C252.913 56.4896 249.364 54.8576 247.283 51.5936L244.039 67.8728H234.492L243.427 23.0744H252.485L251.812 26.318C254.545 23.8292 257.911 22.5848 261.91 22.5848ZM256.83 48.5948C258.707 48.5948 260.38 48.146 261.848 47.2484C263.317 46.31 264.46 45.0248 265.276 43.3928C266.092 41.7608 266.5 39.884 266.5 37.7624C266.5 35.5184 265.826 33.7436 264.48 32.438C263.174 31.1324 261.338 30.4796 258.972 30.4796C257.136 30.4796 255.484 30.9488 254.015 31.8872C252.546 32.7848 251.404 34.0496 250.588 35.6816C249.772 37.3136 249.364 39.1904 249.364 41.312C249.364 43.556 250.016 45.3308 251.322 46.6364C252.628 47.942 254.464 48.5948 256.83 48.5948ZM314.874 37.0892C314.874 38.5988 314.69 40.2716 314.323 42.1076H289.109C289.435 46.5956 292.271 48.8396 297.616 48.8396C299.288 48.8396 300.88 48.5744 302.389 48.044C303.94 47.5136 305.286 46.7588 306.428 45.7796L310.406 52.0832C308.57 53.552 306.469 54.6536 304.103 55.388C301.736 56.1224 299.248 56.4896 296.636 56.4896C293.25 56.4896 290.272 55.898 287.701 54.7148C285.172 53.4908 283.213 51.7568 281.826 49.5128C280.48 47.2688 279.806 44.678 279.806 41.7404C279.806 38.1092 280.622 34.8452 282.254 31.9484C283.927 29.0108 286.232 26.726 289.17 25.094C292.108 23.4212 295.453 22.5848 299.207 22.5848C302.389 22.5848 305.143 23.1764 307.469 24.3596C309.835 25.5428 311.651 27.236 312.916 29.4392C314.221 31.6424 314.874 34.1924 314.874 37.0892ZM298.778 29.7452C296.534 29.7452 294.637 30.3572 293.087 31.5812C291.536 32.7644 290.435 34.4168 289.782 36.5384H306.122C306.122 34.4168 305.449 32.7644 304.103 31.5812C302.797 30.3572 301.022 29.7452 298.778 29.7452ZM332.373 26.9912C333.801 25.4408 335.514 24.3188 337.514 23.6252C339.554 22.9316 341.94 22.5848 344.674 22.5848L342.96 31.3976C341.818 31.316 341.084 31.2752 340.757 31.2752C337.86 31.2752 335.535 31.9892 333.78 33.4172C332.067 34.8452 330.904 37.0688 330.292 40.088L327.11 56H317.562L324.111 23.0744H333.168L332.373 26.9912Z" fill="black"/>
<path d="M367.053 56.7344C362.769 56.7344 359.015 55.9592 355.792 54.4088C352.609 52.8584 350.161 50.6756 348.448 47.8604C346.734 45.0452 345.877 41.8016 345.877 38.1296C345.877 33.2744 346.979 28.9088 349.182 25.0328C351.426 21.116 354.568 18.0356 358.607 15.7916C362.646 13.5476 367.277 12.4256 372.499 12.4256C376.335 12.4256 379.721 13.0784 382.659 14.384C385.596 15.6896 387.82 17.5664 389.329 20.0144L382.169 25.8896C379.884 22.544 376.437 20.8712 371.826 20.8712C368.685 20.8712 365.91 21.6056 363.503 23.0744C361.096 24.5432 359.219 26.5424 357.873 29.072C356.567 31.6016 355.914 34.4168 355.914 37.5176C355.914 40.8224 356.955 43.454 359.035 45.4124C361.157 47.33 364.115 48.2888 367.909 48.2888C372.438 48.2888 376.233 46.6364 379.293 43.3316L385.168 49.3292C380.925 54.266 374.886 56.7344 367.053 56.7344ZM414.507 22.5848C418.179 22.5848 421.096 23.564 423.259 25.5224C425.421 27.4808 426.502 30.2552 426.502 33.8456C426.502 35.1512 426.359 36.4568 426.074 37.7624L422.402 56H412.855L416.404 38.3744C416.567 37.6808 416.649 36.926 416.649 36.11C416.649 34.3964 416.18 33.0908 415.241 32.1932C414.303 31.2956 412.895 30.8468 411.019 30.8468C408.571 30.8468 406.531 31.5608 404.899 32.9888C403.307 34.376 402.226 36.4772 401.655 39.2924L398.35 56H388.803L397.861 10.5896H407.408L404.348 26.0732C407.163 23.7476 410.549 22.5848 414.507 22.5848ZM471.439 23.0744L464.891 56H455.833L456.445 52.7564C453.712 55.2452 450.346 56.4896 446.347 56.4896C443.777 56.4896 441.411 55.898 439.248 54.7148C437.086 53.5316 435.352 51.8384 434.046 49.6352C432.781 47.3912 432.149 44.7596 432.149 41.7404C432.149 38.1092 432.945 34.8452 434.536 31.9484C436.168 29.0108 438.371 26.726 441.145 25.094C443.92 23.4212 446.98 22.5848 450.325 22.5848C455.385 22.5848 458.955 24.2372 461.035 27.542L461.892 23.0744H471.439ZM449.285 48.5948C451.162 48.5948 452.835 48.146 454.303 47.2484C455.772 46.31 456.915 45.0248 457.731 43.3928C458.547 41.7608 458.955 39.884 458.955 37.7624C458.955 35.5184 458.281 33.7436 456.935 32.438C455.629 31.1324 453.793 30.4796 451.427 30.4796C449.55 30.4796 447.877 30.9488 446.409 31.8872C444.94 32.7848 443.797 34.0496 442.981 35.6816C442.165 37.3136 441.757 39.1904 441.757 41.312C441.757 43.556 442.41 45.3308 443.716 46.6364C445.062 47.942 446.919 48.5948 449.285 48.5948ZM486.704 44.372C486.623 44.6984 486.582 45.1472 486.582 45.7184C486.582 47.84 487.745 48.9008 490.07 48.9008C491.335 48.9008 492.62 48.5132 493.926 47.738L495.334 54.5312C493.212 55.8368 490.478 56.4896 487.133 56.4896C484.032 56.4896 481.543 55.6736 479.666 54.0416C477.79 52.4096 476.851 50.1656 476.851 47.3096C476.851 46.4936 476.953 45.5348 477.157 44.4332L479.789 31.1528H474.709L476.178 23.8088H481.258L482.849 15.7916H492.396L490.805 23.8088H499.006L497.537 31.1528H489.336L486.704 44.372Z" fill="#2BB741"/>
</g>
<defs>
<clipPath id="clip0_3_29">
<rect width="497.4" height="87" fill="white"/>
</clipPath>
</defs>
</svg>
